<?xml version="1.0" encoding="UTF-8" standalone="no"?>
<svg
   xmlns:dc="http://purl.org/dc/elements/1.1/"
   xmlns:cc="http://creativecommons.org/ns#"
   xmlns:rdf="http://www.w3.org/1999/02/22-rdf-syntax-ns#"
   xmlns:svg="http://www.w3.org/2000/svg"
   xmlns="http://www.w3.org/2000/svg"
   xmlns:sodipodi="http://sodipodi.sourceforge.net/DTD/sodipodi-0.dtd"
   xmlns:inkscape="http://www.inkscape.org/namespaces/inkscape"
   width="1em"
   height="1em"
   viewBox="0 0 20 20"
   version="1.1"
   id="svg4"
   sodipodi:docname="feather.svg"
   inkscape:export-filename="E:\git\whisper-app\assets\feather.png"
   inkscape:export-xdpi="2457.6001"
   inkscape:export-ydpi="2457.6001"
   inkscape:version="1.0.1 (3bc2e813f5, 2020-09-07)">
  <metadata
     id="metadata10">
    <rdf:RDF>
      <cc:Work
         rdf:about="">
        <dc:format>image/svg+xml</dc:format>
        <dc:type
           rdf:resource="http://purl.org/dc/dcmitype/StillImage" />
        <dc:title></dc:title>
      </cc:Work>
    </rdf:RDF>
  </metadata>
  <defs
     id="defs8" />
  <sodipodi:namedview
     pagecolor="#ffffff"
     bordercolor="#666666"
     borderopacity="1"
     objecttolerance="10"
     gridtolerance="10"
     guidetolerance="10"
     inkscape:pageopacity="0"
     inkscape:pageshadow="2"
     inkscape:window-width="5120"
     inkscape:window-height="1369"
     id="namedview6"
     showgrid="false"
     inkscape:zoom="50.4"
     inkscape:cx="7.000153"
     inkscape:cy="9.7992568"
     inkscape:window-x="-8"
     inkscape:window-y="2152"
     inkscape:window-maximized="1"
     inkscape:current-layer="svg4" />
  <path
     fill="#ff5722"
     d="M4.254 19.567c.307-.982.77-2.364 1.391-4.362c2.707-.429 3.827.341 5.546-2.729c-1.395.427-3.077-.792-2.987-1.321c.091-.528 3.913.381 6.416-3.173c-3.155.696-4.164-.836-3.757-1.067c.939-.534 3.726-.222 5.212-1.669c.766-.745 1.125-2.556.813-3.202c-.374-.781-2.656-1.946-3.914-1.836c-1.258.109-3.231 4.79-3.817 4.754c-.584-.037-.703-2.098.319-4.013c-1.077.477-3.051 1.959-3.67 3.226c-1.153 2.357.108 7.766-.296 7.958c-.405.193-1.766-2.481-2.172-3.694c-.555 1.859-.568 3.721 1.053 6.194c-.611 1.623-.945 3.491-.996 4.441c-.024.759.724.922.859.493"
     id="path2" />
</svg>
